<svg width="122" height="193" viewBox="0 0 122 193" fill="none" xmlns="http://www.w3.org/2000/svg">
<path d="M5.73176 129.396C11.369 121.418 24.3896 126.869 30.1952 130.592C35.1145 133.517 44.3681 141.361 42.0281 149.339C41.0088 152.84 38.1458 159.47 34.8486 161.703C30.727 164.495 20.7555 164.362 12.3794 159.177C-3.46864 148.966 1.34429 135.068 5.73176 129.396Z" fill="#DED652"/>
<path d="M5.73176 129.396C0.0945226 137.373 9.76468 147.433 15.3044 151.466C25.5418 158.919 39.6881 157.316 42.0281 149.339M5.73176 129.396C11.369 121.418 24.3896 126.869 30.1952 130.592C35.1145 133.517 44.3681 141.361 42.0281 149.339M5.73176 129.396C1.34429 135.068 -3.46864 148.966 12.3794 159.177C20.7555 164.362 30.727 164.495 34.8486 161.703C38.1458 159.47 41.0088 152.84 42.0281 149.339M33.3861 157.715L31.6577 161.703M26.2066 157.715L24.4782 161.703M19.426 155.72L17.5646 159.842M13.4431 152.131L11.4488 156.651M9.18855 148.807L7.3272 152.928M5.73176 144.286L4.40222 148.009M3.8704 140.298L2.80677 143.09" stroke="#454302" stroke-width="1.06363" stroke-linecap="round"/>
<path d="M20.2237 149.605C9.05561 143.755 7.64628 134.98 9.72038 131.523C11.0499 129.307 16.3415 126.87 26.8714 132.188C37.4013 137.506 39.1031 145.084 37.7736 148.275C36.4441 151.466 31.3918 155.455 20.2237 149.605Z" fill="#ECE563"/>
<path d="M62.2202 138.488C52.5934 140.142 47.2409 127.081 45.7681 120.343C44.3579 114.797 43.3613 102.707 50.6567 98.7206C53.8531 96.9657 60.5656 94.302 64.4765 95.0541C69.3652 95.9943 76.3221 103.139 78.5784 112.728C82.5645 131.155 69.3338 137.579 62.2202 138.488Z" fill="#DED652"/>
<path d="M62.2202 138.488C71.8471 136.833 72.1229 122.882 71.0574 116.113C69.0884 103.604 57.9521 94.7345 50.6567 98.7206M62.2202 138.488C52.5934 140.142 47.2409 127.081 45.7681 120.343C44.3579 114.797 43.3613 102.707 50.6567 98.7206M62.2202 138.488C69.3338 137.579 82.5645 131.155 78.5784 112.728C76.3221 103.139 69.3652 95.9943 64.4765 95.0541C60.5656 94.302 53.8531 96.9657 50.6567 98.7206M62.6903 98.9086L66.7328 97.3104M67.767 103.985L71.8095 102.387M71.1514 110.19L75.382 108.592M72.8436 116.959L77.4502 115.173M73.5017 122.318L77.7323 120.72M72.7496 127.958L76.3221 126.266M71.2454 132.095L73.9718 130.873" stroke="#454302" stroke-width="1.06363" stroke-linecap="round"/>
<path d="M66.2627 113.951C70.0232 125.984 64.815 133.186 60.904 134.163C58.3971 134.79 52.9318 132.772 49.2465 121.566C45.5612 110.36 49.7166 103.797 52.913 102.481C56.1094 101.165 62.5022 101.917 66.2627 113.951Z" fill="#ECE563"/>
<path d="M94.395 142.493C84.7682 140.838 79.4157 153.9 77.9429 160.637C76.5327 166.184 75.5361 178.274 82.8315 182.26C86.0279 184.015 92.7404 186.679 96.6513 185.927C101.54 184.987 108.497 177.842 110.753 168.252C114.739 149.826 101.509 143.402 94.395 142.493Z" fill="#DED652"/>
<path d="M94.395 142.493C104.022 144.148 104.298 158.099 103.232 164.868C101.263 177.377 90.1269 186.246 82.8315 182.26M94.395 142.493C84.7682 140.838 79.4157 153.9 77.9429 160.637C76.5327 166.184 75.5361 178.274 82.8315 182.26M94.395 142.493C101.509 143.402 114.739 149.826 110.753 168.252C108.497 177.842 101.54 184.987 96.6513 185.927C92.7404 186.679 86.0279 184.015 82.8315 182.26M94.8651 182.072L98.9076 183.671M99.9418 176.996L103.984 178.594M103.326 170.791L107.557 172.389M105.018 164.022L109.625 165.808M105.677 158.663L109.907 160.261M104.924 153.022L108.497 154.715M103.42 148.886L106.147 150.108" stroke="#454302" stroke-width="1.06363" stroke-linecap="round"/>
<path d="M98.4375 167.03C102.198 154.997 96.9898 147.795 93.0789 146.818C90.5719 146.191 85.1066 148.209 81.4213 159.415C77.736 170.621 81.8914 177.184 85.0878 178.5C88.2842 179.816 94.6771 179.064 98.4375 167.03Z" fill="#ECE563"/>
<path d="M22.5485 81.0488C22.5485 81.6011 22.9962 82.0488 23.5485 82.0488C24.1008 82.0488 24.5485 81.6011 24.5485 81.0488V23.5488C24.5485 22.9965 24.1008 22.5488 23.5485 22.5488C22.9962 22.5488 22.5485 22.9965 22.5485 23.5488V81.0488Z" fill="#ECE563"/>
<path d="M62.0485 73.0488C62.0485 73.6011 62.4962 74.0488 63.0485 74.0488C63.6008 74.0488 64.0485 73.6011 64.0485 73.0488V1.54883C64.0485 0.996544 63.6008 0.548828 63.0485 0.548828C62.4962 0.548828 62.0485 0.996544 62.0485 1.54883V73.0488Z" fill="#ECE563"/>
<path d="M94.5485 97.5488C94.5485 98.1011 94.9962 98.5488 95.5485 98.5488C96.1008 98.5488 96.5485 98.1011 96.5485 97.5488V28.5488C96.5485 27.9965 96.1008 27.5488 95.5485 27.5488C94.9962 27.5488 94.5485 27.9965 94.5485 28.5488V97.5488Z" fill="#ECE563"/>
</svg>
